G75*
%MOIN*%
%OFA0B0*%
%FSLAX25Y25*%
%IPPOS*%
%LPD*%
%AMOC8*
5,1,8,0,0,1.08239X$1,22.5*
%
%ADD10C,0.00600*%
D10*
X0114442Y0092376D02*
X0130645Y0081168D01*
X0148124Y0070718D01*
X0166912Y0061021D01*
X0187044Y0052071D01*
X0208552Y0043866D01*
X0231470Y0036399D01*
X0255832Y0029665D01*
X0281671Y0023661D01*
X0309022Y0018381D01*
X0337917Y0013821D01*
X0368390Y0009975D01*
X0400475Y0006839D01*
X0434206Y0004409D01*
X0469615Y0002678D01*
X0506737Y0001644D01*
X0545606Y0001300D01*
X0584474Y0001644D01*
X0621596Y0002678D01*
X0657006Y0004409D01*
X0690736Y0006839D01*
X0722821Y0009975D01*
X0753294Y0013821D01*
X0782190Y0018381D01*
X0809540Y0023661D01*
X0835379Y0029665D01*
X0859741Y0036399D01*
X0882660Y0043866D01*
X0904168Y0052071D01*
X0924299Y0061021D01*
X0943087Y0070718D01*
X0960566Y0081168D01*
X0976769Y0092376D01*
X0991729Y0104347D01*
X1005481Y0117085D01*
X1018058Y0130595D01*
X1029494Y0144882D01*
X1039821Y0159950D01*
X1049074Y0175805D01*
X1057287Y0192452D01*
X1064492Y0209894D01*
X1070724Y0228137D01*
X1076016Y0247185D01*
X1080402Y0267044D01*
X1083915Y0287718D01*
X1086589Y0309212D01*
X1088457Y0331531D01*
X1089553Y0354679D01*
X1089911Y0378661D01*
X1089553Y0402643D01*
X1088457Y0425792D01*
X1086589Y0448110D01*
X1083915Y0469604D01*
X1080402Y0490278D01*
X1076016Y0510137D01*
X1070724Y0529186D01*
X1064492Y0547429D01*
X1057287Y0564871D01*
X1049074Y0581517D01*
X1039821Y0597372D01*
X1029494Y0612440D01*
X1018058Y0626727D01*
X1005481Y0640237D01*
X0991729Y0652975D01*
X0976769Y0664946D01*
X0960566Y0676154D01*
X0943087Y0686604D01*
X0924299Y0696302D01*
X0904168Y0705251D01*
X0882660Y0713457D01*
X0859741Y0720924D01*
X0835379Y0727657D01*
X0809540Y0733661D01*
X0782190Y0738941D01*
X0753294Y0743502D01*
X0722821Y0747347D01*
X0690736Y0750483D01*
X0657006Y0752914D01*
X0621596Y0754644D01*
X0584474Y0755678D01*
X0545606Y0756022D01*
X0506737Y0755678D01*
X0469615Y0754644D01*
X0434206Y0752914D01*
X0400475Y0750483D01*
X0368390Y0747347D01*
X0337917Y0743502D01*
X0309022Y0738941D01*
X0281671Y0733661D01*
X0255832Y0727657D01*
X0231470Y0720924D01*
X0208551Y0713457D01*
X0187044Y0705251D01*
X0166912Y0696302D01*
X0148124Y0686604D01*
X0130645Y0676154D01*
X0114442Y0664946D01*
X0099482Y0652975D01*
X0085730Y0640237D01*
X0073153Y0626727D01*
X0061717Y0612440D01*
X0051390Y0597372D01*
X0042137Y0581517D01*
X0033924Y0564871D01*
X0026719Y0547429D01*
X0020487Y0529186D01*
X0015195Y0510137D01*
X0010809Y0490278D01*
X0007296Y0469604D01*
X0004623Y0448110D01*
X0002754Y0425792D01*
X0001658Y0402643D01*
X0001300Y0378661D01*
X0001658Y0354679D01*
X0002754Y0331531D01*
X0004623Y0309212D01*
X0007296Y0287718D01*
X0010809Y0267044D01*
X0015195Y0247185D01*
X0020487Y0228137D01*
X0026719Y0209894D01*
X0033924Y0192452D01*
X0042137Y0175805D01*
X0051390Y0159950D01*
X0061718Y0144882D01*
X0073153Y0130595D01*
X0085730Y0117085D01*
X0099482Y0104347D01*
X0114442Y0092376D01*
X0144288Y0132492D02*
X0158420Y0122746D01*
X0173727Y0113672D01*
X0190241Y0105254D01*
X0207994Y0097482D01*
X0227019Y0090340D01*
X0247348Y0083817D01*
X0269014Y0077899D01*
X0292048Y0072573D01*
X0318083Y0067549D01*
X0345624Y0063210D01*
X0374727Y0059551D01*
X0405446Y0056568D01*
X0437838Y0054256D01*
X0471958Y0052611D01*
X0507862Y0051627D01*
X0545606Y0051300D01*
X0583349Y0051627D01*
X0619253Y0052611D01*
X0653373Y0054256D01*
X0685765Y0056568D01*
X0716485Y0059551D01*
X0745587Y0063210D01*
X0773128Y0067549D01*
X0799163Y0072573D01*
X0822197Y0077899D01*
X0843863Y0083817D01*
X0864192Y0090340D01*
X0883217Y0097482D01*
X0900970Y0105254D01*
X0917484Y0113672D01*
X0932791Y0122746D01*
X0946924Y0132492D01*
X0958751Y0141942D01*
X0969696Y0152044D01*
X0979773Y0162818D01*
X0988999Y0174285D01*
X0997389Y0186466D01*
X1004958Y0199382D01*
X1011722Y0213054D01*
X1017696Y0227502D01*
X1022943Y0242862D01*
X1027474Y0259166D01*
X1031294Y0276446D01*
X1034409Y0294737D01*
X1036824Y0314071D01*
X1038543Y0334481D01*
X1039570Y0356000D01*
X1039912Y0378661D01*
X1039570Y0401323D01*
X1038543Y0422842D01*
X1036824Y0443252D01*
X1034409Y0462586D01*
X1031294Y0480876D01*
X1027474Y0498157D01*
X1022943Y0514461D01*
X1017696Y0529821D01*
X1011722Y0544269D01*
X1004958Y0557940D01*
X0997389Y0570856D01*
X0988999Y0583037D01*
X0979773Y0594504D01*
X0969696Y0605278D01*
X0958751Y0615380D01*
X0946924Y0624830D01*
X0932791Y0634576D01*
X0917484Y0643651D01*
X0900970Y0652068D01*
X0883217Y0659841D01*
X0864192Y0666982D01*
X0843863Y0673506D01*
X0822197Y0679424D01*
X0799163Y0684750D01*
X0773128Y0689774D01*
X0745587Y0694113D01*
X0716485Y0697771D01*
X0685765Y0700754D01*
X0653373Y0703066D01*
X0619253Y0704711D01*
X0583349Y0705695D01*
X0545606Y0706022D01*
X0507862Y0705695D01*
X0471958Y0704711D01*
X0437838Y0703066D01*
X0405446Y0700754D01*
X0374727Y0697771D01*
X0345624Y0694113D01*
X0318083Y0689774D01*
X0292048Y0684750D01*
X0269014Y0679424D01*
X0247348Y0673506D01*
X0227019Y0666982D01*
X0207994Y0659841D01*
X0190241Y0652068D01*
X0173727Y0643651D01*
X0158420Y0634576D01*
X0144288Y0624830D01*
X0132461Y0615380D01*
X0121516Y0605278D01*
X0111439Y0594504D01*
X0102213Y0583037D01*
X0093823Y0570856D01*
X0086254Y0557940D01*
X0079491Y0544269D01*
X0073516Y0529821D01*
X0068269Y0514461D01*
X0063738Y0498157D01*
X0059917Y0480877D01*
X0056802Y0462586D01*
X0054388Y0443252D01*
X0052669Y0422842D01*
X0051642Y0401323D01*
X0051300Y0378661D01*
X0051642Y0356000D01*
X0052669Y0334481D01*
X0054388Y0314071D01*
X0056802Y0294737D01*
X0059917Y0276446D01*
X0063738Y0259166D01*
X0068269Y0242862D01*
X0073516Y0227502D01*
X0079491Y0213054D01*
X0086254Y0199382D01*
X0093823Y0186466D01*
X0102213Y0174285D01*
X0111439Y0162818D01*
X0121516Y0152044D01*
X0132461Y0141942D01*
X0144288Y0132492D01*
X0158420Y0122746D01*
X0173727Y0113672D01*
X0190241Y0105254D01*
X0207994Y0097482D01*
X0227019Y0090340D01*
X0247348Y0083817D01*
X0269014Y0077899D01*
X0292048Y0072573D01*
X0318083Y0067549D01*
X0345624Y0063210D01*
X0374727Y0059551D01*
X0405446Y0056568D01*
X0437838Y0054256D01*
X0471958Y0052611D01*
X0507862Y0051627D01*
X0545606Y0051300D01*
X0583349Y0051627D01*
X0619253Y0052611D01*
X0653373Y0054256D01*
X0685765Y0056568D01*
X0716485Y0059551D01*
X0745587Y0063210D01*
X0773128Y0067549D01*
X0799163Y0072573D01*
X0822197Y0077899D01*
X0843863Y0083817D01*
X0864192Y0090340D01*
X0883217Y0097482D01*
X0900970Y0105254D01*
X0917484Y0113672D01*
X0932791Y0122746D01*
X0946924Y0132492D01*
X0958751Y0141942D01*
X0969696Y0152044D01*
X0979773Y0162818D01*
X0988999Y0174285D01*
X0997389Y0186466D01*
X1004958Y0199382D01*
X1011722Y0213054D01*
X1017696Y0227502D01*
X1022943Y0242862D01*
X1027474Y0259166D01*
X1031294Y0276446D01*
X1034409Y0294737D01*
X1036824Y0314071D01*
X1038543Y0334481D01*
X1039570Y0356000D01*
X1039912Y0378661D01*
X1039570Y0401323D01*
X1038543Y0422842D01*
X1036824Y0443252D01*
X1034409Y0462586D01*
X1031294Y0480876D01*
X1027474Y0498157D01*
X1022943Y0514461D01*
X1017696Y0529821D01*
X1011722Y0544269D01*
X1004958Y0557940D01*
X0997389Y0570856D01*
X0988999Y0583037D01*
X0979773Y0594504D01*
X0969696Y0605278D01*
X0958751Y0615380D01*
X0946924Y0624830D01*
X0932791Y0634576D01*
X0917484Y0643651D01*
X0900970Y0652068D01*
X0883217Y0659841D01*
X0864192Y0666982D01*
X0843863Y0673506D01*
X0822197Y0679424D01*
X0799163Y0684750D01*
X0773128Y0689774D01*
X0745587Y0694113D01*
X0716485Y0697771D01*
X0685765Y0700754D01*
X0653373Y0703066D01*
X0619253Y0704711D01*
X0583349Y0705695D01*
X0545606Y0706022D01*
X0507862Y0705695D01*
X0471958Y0704711D01*
X0437838Y0703066D01*
X0405446Y0700754D01*
X0374727Y0697771D01*
X0345624Y0694113D01*
X0318083Y0689774D01*
X0292048Y0684750D01*
X0269014Y0679424D01*
X0247348Y0673506D01*
X0227019Y0666982D01*
X0207994Y0659841D01*
X0190241Y0652068D01*
X0173727Y0643651D01*
X0158420Y0634576D01*
X0144288Y0624830D01*
X0132461Y0615380D01*
X0121516Y0605278D01*
X0111439Y0594504D01*
X0102213Y0583037D01*
X0093823Y0570856D01*
X0086254Y0557940D01*
X0079491Y0544269D01*
X0073516Y0529821D01*
X0068269Y0514461D01*
X0063738Y0498157D01*
X0059917Y0480877D01*
X0056802Y0462586D01*
X0054388Y0443252D01*
X0052669Y0422842D01*
X0051642Y0401323D01*
X0051300Y0378661D01*
X0051642Y0356000D01*
X0052669Y0334481D01*
X0054388Y0314071D01*
X0056802Y0294737D01*
X0059917Y0276446D01*
X0063738Y0259166D01*
X0068269Y0242862D01*
X0073516Y0227502D01*
X0079491Y0213054D01*
X0086254Y0199382D01*
X0093823Y0186466D01*
X0102213Y0174285D01*
X0111439Y0162818D01*
X0121516Y0152044D01*
X0132461Y0141942D01*
X0144288Y0132492D01*
M02*
