G75*
%MOIN*%
%OFA0B0*%
%FSLAX25Y25*%
%IPPOS*%
%LPD*%
%AMOC8*
5,1,8,0,0,1.08239X$1,22.5*
%
%ADD10OC8,0.09300*%
%ADD11R,0.05131X0.08674*%
%ADD12R,0.08674X0.05131*%
%ADD13C,0.04762*%
D10*
X1055519Y0319543D03*
X1068911Y0319543D03*
X1071611Y0339291D03*
X1058219Y0339291D03*
D11*
X1058219Y0370787D03*
X1064912Y0370787D03*
X1071605Y0370787D03*
X1071605Y0386535D03*
X1064912Y0386535D03*
X1058219Y0386535D03*
X0032993Y0386535D03*
X0026300Y0386535D03*
X0019607Y0386535D03*
X0019607Y0370787D03*
X0026300Y0370787D03*
X0032993Y0370787D03*
D12*
G36*
X0039881Y0301267D02*
X0041208Y0292696D01*
X0036139Y0291911D01*
X0034812Y0300482D01*
X0039881Y0301267D01*
G37*
G36*
X0033267Y0300243D02*
X0034594Y0291672D01*
X0029525Y0290887D01*
X0028198Y0299458D01*
X0033267Y0300243D01*
G37*
G36*
X0026653Y0299219D02*
X0027980Y0290648D01*
X0022911Y0289863D01*
X0021584Y0298434D01*
X0026653Y0299219D01*
G37*
G36*
X0042290Y0285704D02*
X0043617Y0277133D01*
X0038548Y0276348D01*
X0037221Y0284919D01*
X0042290Y0285704D01*
G37*
G36*
X0035676Y0284680D02*
X0037003Y0276109D01*
X0031934Y0275324D01*
X0030607Y0283895D01*
X0035676Y0284680D01*
G37*
G36*
X0029062Y0283656D02*
X0030389Y0275085D01*
X0025320Y0274300D01*
X0023993Y0282871D01*
X0029062Y0283656D01*
G37*
G36*
X0061188Y0215132D02*
X0064854Y0207272D01*
X0060206Y0205104D01*
X0056540Y0212964D01*
X0061188Y0215132D01*
G37*
G36*
X0055122Y0212304D02*
X0058788Y0204444D01*
X0054140Y0202276D01*
X0050474Y0210136D01*
X0055122Y0212304D01*
G37*
G36*
X0049056Y0209475D02*
X0052722Y0201615D01*
X0048074Y0199447D01*
X0044408Y0207307D01*
X0049056Y0209475D01*
G37*
G36*
X0055711Y0195203D02*
X0059377Y0187343D01*
X0054729Y0185175D01*
X0051063Y0193035D01*
X0055711Y0195203D01*
G37*
G36*
X0061777Y0198031D02*
X0065443Y0190171D01*
X0060795Y0188003D01*
X0057129Y0195863D01*
X0061777Y0198031D01*
G37*
G36*
X0067843Y0200860D02*
X0071509Y0193000D01*
X0066861Y0190832D01*
X0063195Y0198692D01*
X0067843Y0200860D01*
G37*
G36*
X0108018Y0142800D02*
X0114423Y0136952D01*
X0110964Y0133164D01*
X0104559Y0139012D01*
X0108018Y0142800D01*
G37*
G36*
X0103505Y0137857D02*
X0109910Y0132009D01*
X0106451Y0128221D01*
X0100046Y0134069D01*
X0103505Y0137857D01*
G37*
G36*
X0098992Y0132915D02*
X0105397Y0127067D01*
X0101938Y0123279D01*
X0095533Y0129127D01*
X0098992Y0132915D01*
G37*
G36*
X0115134Y0127238D02*
X0121539Y0121390D01*
X0118080Y0117602D01*
X0111675Y0123450D01*
X0115134Y0127238D01*
G37*
G36*
X0119647Y0132181D02*
X0126052Y0126333D01*
X0122593Y0122545D01*
X0116188Y0128393D01*
X0119647Y0132181D01*
G37*
G36*
X0110621Y0122296D02*
X0117026Y0116448D01*
X0113567Y0112660D01*
X0107162Y0118508D01*
X0110621Y0122296D01*
G37*
G36*
X0179401Y0092781D02*
X0187318Y0089239D01*
X0185223Y0084557D01*
X0177306Y0088099D01*
X0179401Y0092781D01*
G37*
G36*
X0176668Y0086672D02*
X0184585Y0083130D01*
X0182490Y0078448D01*
X0174573Y0081990D01*
X0176668Y0086672D01*
G37*
G36*
X0173935Y0080562D02*
X0181852Y0077020D01*
X0179757Y0072338D01*
X0171840Y0075880D01*
X0173935Y0080562D01*
G37*
G36*
X0188310Y0074132D02*
X0196227Y0070590D01*
X0194132Y0065908D01*
X0186215Y0069450D01*
X0188310Y0074132D01*
G37*
G36*
X0191043Y0080242D02*
X0198960Y0076700D01*
X0196865Y0072018D01*
X0188948Y0075560D01*
X0191043Y0080242D01*
G37*
G36*
X0193776Y0086351D02*
X0201693Y0082809D01*
X0199598Y0078127D01*
X0191681Y0081669D01*
X0193776Y0086351D01*
G37*
G36*
X0262949Y0062995D02*
X0271393Y0061014D01*
X0270221Y0056021D01*
X0261777Y0058002D01*
X0262949Y0062995D01*
G37*
G36*
X0278281Y0059399D02*
X0286725Y0057418D01*
X0285553Y0052425D01*
X0277109Y0054406D01*
X0278281Y0059399D01*
G37*
G36*
X0276752Y0052883D02*
X0285196Y0050902D01*
X0284024Y0045909D01*
X0275580Y0047890D01*
X0276752Y0052883D01*
G37*
G36*
X0275224Y0046367D02*
X0283668Y0044386D01*
X0282496Y0039393D01*
X0274052Y0041374D01*
X0275224Y0046367D01*
G37*
G36*
X0259892Y0049963D02*
X0268336Y0047982D01*
X0267164Y0042989D01*
X0258720Y0044970D01*
X0259892Y0049963D01*
G37*
G36*
X0261420Y0056479D02*
X0269864Y0054498D01*
X0268692Y0049505D01*
X0260248Y0051486D01*
X0261420Y0056479D01*
G37*
G36*
X0350164Y0046583D02*
X0358774Y0045541D01*
X0358158Y0040449D01*
X0349548Y0041491D01*
X0350164Y0046583D01*
G37*
G36*
X0365798Y0044691D02*
X0374408Y0043649D01*
X0373792Y0038557D01*
X0365182Y0039599D01*
X0365798Y0044691D01*
G37*
G36*
X0364994Y0038047D02*
X0373604Y0037005D01*
X0372988Y0031913D01*
X0364378Y0032955D01*
X0364994Y0038047D01*
G37*
G36*
X0349360Y0039938D02*
X0357970Y0038896D01*
X0357354Y0033804D01*
X0348744Y0034846D01*
X0349360Y0039938D01*
G37*
G36*
X0348556Y0033294D02*
X0357166Y0032252D01*
X0356550Y0027160D01*
X0347940Y0028202D01*
X0348556Y0033294D01*
G37*
G36*
X0364190Y0031402D02*
X0372800Y0030360D01*
X0372184Y0025268D01*
X0363574Y0026310D01*
X0364190Y0031402D01*
G37*
G36*
X0439551Y0031630D02*
X0448214Y0031207D01*
X0447963Y0026084D01*
X0439300Y0026507D01*
X0439551Y0031630D01*
G37*
G36*
X0439878Y0038315D02*
X0448541Y0037892D01*
X0448290Y0032769D01*
X0439627Y0033192D01*
X0439878Y0038315D01*
G37*
G36*
X0455607Y0037545D02*
X0464270Y0037122D01*
X0464019Y0031999D01*
X0455356Y0032422D01*
X0455607Y0037545D01*
G37*
G36*
X0455280Y0030860D02*
X0463943Y0030437D01*
X0463692Y0025314D01*
X0455029Y0025737D01*
X0455280Y0030860D01*
G37*
G36*
X0454953Y0024175D02*
X0463616Y0023752D01*
X0463365Y0018629D01*
X0454702Y0019052D01*
X0454953Y0024175D01*
G37*
G36*
X0439224Y0024945D02*
X0447887Y0024522D01*
X0447636Y0019399D01*
X0438973Y0019822D01*
X0439224Y0024945D01*
G37*
X0537731Y0026300D03*
X0537731Y0019607D03*
X0553480Y0019607D03*
X0553480Y0026300D03*
X0553480Y0032993D03*
X0537731Y0032993D03*
G36*
X0626941Y0037122D02*
X0635604Y0037545D01*
X0635855Y0032422D01*
X0627192Y0031999D01*
X0626941Y0037122D01*
G37*
G36*
X0627268Y0030437D02*
X0635931Y0030860D01*
X0636182Y0025737D01*
X0627519Y0025314D01*
X0627268Y0030437D01*
G37*
G36*
X0627594Y0023752D02*
X0636257Y0024175D01*
X0636508Y0019052D01*
X0627845Y0018629D01*
X0627594Y0023752D01*
G37*
G36*
X0643324Y0024522D02*
X0651987Y0024945D01*
X0652238Y0019822D01*
X0643575Y0019399D01*
X0643324Y0024522D01*
G37*
G36*
X0642997Y0031207D02*
X0651660Y0031630D01*
X0651911Y0026507D01*
X0643248Y0026084D01*
X0642997Y0031207D01*
G37*
G36*
X0642670Y0037892D02*
X0651333Y0038315D01*
X0651584Y0033192D01*
X0642921Y0032769D01*
X0642670Y0037892D01*
G37*
G36*
X0716803Y0043649D02*
X0725413Y0044691D01*
X0726029Y0039599D01*
X0717419Y0038557D01*
X0716803Y0043649D01*
G37*
G36*
X0717607Y0037005D02*
X0726217Y0038047D01*
X0726833Y0032955D01*
X0718223Y0031913D01*
X0717607Y0037005D01*
G37*
G36*
X0718411Y0030360D02*
X0727021Y0031402D01*
X0727637Y0026310D01*
X0719027Y0025268D01*
X0718411Y0030360D01*
G37*
G36*
X0734045Y0032252D02*
X0742655Y0033294D01*
X0743271Y0028202D01*
X0734661Y0027160D01*
X0734045Y0032252D01*
G37*
G36*
X0733241Y0038896D02*
X0741851Y0039938D01*
X0742467Y0034846D01*
X0733857Y0033804D01*
X0733241Y0038896D01*
G37*
G36*
X0732437Y0045541D02*
X0741047Y0046583D01*
X0741663Y0041491D01*
X0733053Y0040449D01*
X0732437Y0045541D01*
G37*
G36*
X0804486Y0057418D02*
X0812930Y0059399D01*
X0814102Y0054406D01*
X0805658Y0052425D01*
X0804486Y0057418D01*
G37*
G36*
X0806015Y0050902D02*
X0814459Y0052883D01*
X0815631Y0047890D01*
X0807187Y0045909D01*
X0806015Y0050902D01*
G37*
G36*
X0807543Y0044386D02*
X0815987Y0046367D01*
X0817159Y0041374D01*
X0808715Y0039393D01*
X0807543Y0044386D01*
G37*
G36*
X0822875Y0047982D02*
X0831319Y0049963D01*
X0832491Y0044970D01*
X0824047Y0042989D01*
X0822875Y0047982D01*
G37*
G36*
X0821347Y0054498D02*
X0829791Y0056479D01*
X0830963Y0051486D01*
X0822519Y0049505D01*
X0821347Y0054498D01*
G37*
G36*
X0819818Y0061014D02*
X0828262Y0062995D01*
X0829434Y0058002D01*
X0820990Y0056021D01*
X0819818Y0061014D01*
G37*
G36*
X0889518Y0082809D02*
X0897435Y0086351D01*
X0899530Y0081669D01*
X0891613Y0078127D01*
X0889518Y0082809D01*
G37*
G36*
X0892251Y0076699D02*
X0900168Y0080241D01*
X0902263Y0075559D01*
X0894346Y0072017D01*
X0892251Y0076699D01*
G37*
G36*
X0894984Y0070590D02*
X0902901Y0074132D01*
X0904996Y0069450D01*
X0897079Y0065908D01*
X0894984Y0070590D01*
G37*
G36*
X0909359Y0077020D02*
X0917276Y0080562D01*
X0919371Y0075880D01*
X0911454Y0072338D01*
X0909359Y0077020D01*
G37*
G36*
X0906626Y0083130D02*
X0914543Y0086672D01*
X0916638Y0081990D01*
X0908721Y0078448D01*
X0906626Y0083130D01*
G37*
G36*
X0903893Y0089239D02*
X0911810Y0092781D01*
X0913905Y0088099D01*
X0905988Y0084557D01*
X0903893Y0089239D01*
G37*
G36*
X0965159Y0126332D02*
X0971564Y0132180D01*
X0975023Y0128392D01*
X0968618Y0122544D01*
X0965159Y0126332D01*
G37*
G36*
X0969672Y0121390D02*
X0976077Y0127238D01*
X0979536Y0123450D01*
X0973131Y0117602D01*
X0969672Y0121390D01*
G37*
G36*
X0974185Y0116448D02*
X0980590Y0122296D01*
X0984049Y0118508D01*
X0977644Y0112660D01*
X0974185Y0116448D01*
G37*
G36*
X0985814Y0127067D02*
X0992219Y0132915D01*
X0995678Y0129127D01*
X0989273Y0123279D01*
X0985814Y0127067D01*
G37*
G36*
X0981301Y0132009D02*
X0987706Y0137857D01*
X0991165Y0134069D01*
X0984760Y0128221D01*
X0981301Y0132009D01*
G37*
G36*
X0976788Y0136951D02*
X0983193Y0142799D01*
X0986652Y0139011D01*
X0980247Y0133163D01*
X0976788Y0136951D01*
G37*
G36*
X1019702Y0192999D02*
X1023368Y0200859D01*
X1028016Y0198691D01*
X1024350Y0190831D01*
X1019702Y0192999D01*
G37*
G36*
X1025768Y0190171D02*
X1029434Y0198031D01*
X1034082Y0195863D01*
X1030416Y0188003D01*
X1025768Y0190171D01*
G37*
G36*
X1031834Y0187342D02*
X1035500Y0195202D01*
X1040148Y0193034D01*
X1036482Y0185174D01*
X1031834Y0187342D01*
G37*
G36*
X1038489Y0201615D02*
X1042155Y0209475D01*
X1046803Y0207307D01*
X1043137Y0199447D01*
X1038489Y0201615D01*
G37*
G36*
X1032423Y0204443D02*
X1036089Y0212303D01*
X1040737Y0210135D01*
X1037071Y0202275D01*
X1032423Y0204443D01*
G37*
G36*
X1026358Y0207272D02*
X1030024Y0215132D01*
X1034672Y0212964D01*
X1031006Y0205104D01*
X1026358Y0207272D01*
G37*
G36*
X1054208Y0276108D02*
X1055535Y0284679D01*
X1060604Y0283894D01*
X1059277Y0275323D01*
X1054208Y0276108D01*
G37*
G36*
X1047594Y0277132D02*
X1048921Y0285703D01*
X1053990Y0284918D01*
X1052663Y0276347D01*
X1047594Y0277132D01*
G37*
G36*
X1060822Y0275084D02*
X1062149Y0283655D01*
X1067218Y0282870D01*
X1065891Y0274299D01*
X1060822Y0275084D01*
G37*
G36*
X1063232Y0290647D02*
X1064559Y0299218D01*
X1069628Y0298433D01*
X1068301Y0289862D01*
X1063232Y0290647D01*
G37*
G36*
X1056617Y0291671D02*
X1057944Y0300242D01*
X1063013Y0299457D01*
X1061686Y0290886D01*
X1056617Y0291671D01*
G37*
G36*
X1050003Y0292695D02*
X1051330Y0301266D01*
X1056399Y0300481D01*
X1055072Y0291910D01*
X1050003Y0292695D01*
G37*
G36*
X1051331Y0456056D02*
X1050004Y0464627D01*
X1055073Y0465412D01*
X1056400Y0456841D01*
X1051331Y0456056D01*
G37*
G36*
X1057945Y0457079D02*
X1056618Y0465650D01*
X1061687Y0466435D01*
X1063014Y0457864D01*
X1057945Y0457079D01*
G37*
G36*
X1064559Y0458103D02*
X1063232Y0466674D01*
X1068301Y0467459D01*
X1069628Y0458888D01*
X1064559Y0458103D01*
G37*
G36*
X1048921Y0471618D02*
X1047594Y0480189D01*
X1052663Y0480974D01*
X1053990Y0472403D01*
X1048921Y0471618D01*
G37*
G36*
X1055535Y0472642D02*
X1054208Y0481213D01*
X1059277Y0481998D01*
X1060604Y0473427D01*
X1055535Y0472642D01*
G37*
G36*
X1062150Y0473666D02*
X1060823Y0482237D01*
X1065892Y0483022D01*
X1067219Y0474451D01*
X1062150Y0473666D01*
G37*
G36*
X1030024Y0542190D02*
X1026358Y0550050D01*
X1031006Y0552218D01*
X1034672Y0544358D01*
X1030024Y0542190D01*
G37*
G36*
X1036090Y0545018D02*
X1032424Y0552878D01*
X1037072Y0555046D01*
X1040738Y0547186D01*
X1036090Y0545018D01*
G37*
G36*
X1042156Y0547847D02*
X1038490Y0555707D01*
X1043138Y0557875D01*
X1046804Y0550015D01*
X1042156Y0547847D01*
G37*
G36*
X1035500Y0562119D02*
X1031834Y0569979D01*
X1036482Y0572147D01*
X1040148Y0564287D01*
X1035500Y0562119D01*
G37*
G36*
X1029434Y0559291D02*
X1025768Y0567151D01*
X1030416Y0569319D01*
X1034082Y0561459D01*
X1029434Y0559291D01*
G37*
G36*
X1023368Y0556462D02*
X1019702Y0564322D01*
X1024350Y0566490D01*
X1028016Y0558630D01*
X1023368Y0556462D01*
G37*
G36*
X0983193Y0614522D02*
X0976788Y0620370D01*
X0980247Y0624158D01*
X0986652Y0618310D01*
X0983193Y0614522D01*
G37*
G36*
X0987706Y0619465D02*
X0981301Y0625313D01*
X0984760Y0629101D01*
X0991165Y0623253D01*
X0987706Y0619465D01*
G37*
G36*
X0992219Y0624407D02*
X0985814Y0630255D01*
X0989273Y0634043D01*
X0995678Y0628195D01*
X0992219Y0624407D01*
G37*
G36*
X0976077Y0630084D02*
X0969672Y0635932D01*
X0973131Y0639720D01*
X0979536Y0633872D01*
X0976077Y0630084D01*
G37*
G36*
X0971564Y0625141D02*
X0965159Y0630989D01*
X0968618Y0634777D01*
X0975023Y0628929D01*
X0971564Y0625141D01*
G37*
G36*
X0980590Y0635026D02*
X0974185Y0640874D01*
X0977644Y0644662D01*
X0984049Y0638814D01*
X0980590Y0635026D01*
G37*
G36*
X0911811Y0664541D02*
X0903894Y0668083D01*
X0905989Y0672765D01*
X0913906Y0669223D01*
X0911811Y0664541D01*
G37*
G36*
X0914544Y0670650D02*
X0906627Y0674192D01*
X0908722Y0678874D01*
X0916639Y0675332D01*
X0914544Y0670650D01*
G37*
G36*
X0917277Y0676760D02*
X0909360Y0680302D01*
X0911455Y0684984D01*
X0919372Y0681442D01*
X0917277Y0676760D01*
G37*
G36*
X0902901Y0683190D02*
X0894984Y0686732D01*
X0897079Y0691414D01*
X0904996Y0687872D01*
X0902901Y0683190D01*
G37*
G36*
X0900168Y0677081D02*
X0892251Y0680623D01*
X0894346Y0685305D01*
X0902263Y0681763D01*
X0900168Y0677081D01*
G37*
G36*
X0897435Y0670971D02*
X0889518Y0674513D01*
X0891613Y0679195D01*
X0899530Y0675653D01*
X0897435Y0670971D01*
G37*
G36*
X0828263Y0694327D02*
X0819819Y0696308D01*
X0820991Y0701301D01*
X0829435Y0699320D01*
X0828263Y0694327D01*
G37*
G36*
X0812931Y0697923D02*
X0804487Y0699904D01*
X0805659Y0704897D01*
X0814103Y0702916D01*
X0812931Y0697923D01*
G37*
G36*
X0814459Y0704439D02*
X0806015Y0706420D01*
X0807187Y0711413D01*
X0815631Y0709432D01*
X0814459Y0704439D01*
G37*
G36*
X0815988Y0710955D02*
X0807544Y0712936D01*
X0808716Y0717929D01*
X0817160Y0715948D01*
X0815988Y0710955D01*
G37*
G36*
X0831320Y0707359D02*
X0822876Y0709340D01*
X0824048Y0714333D01*
X0832492Y0712352D01*
X0831320Y0707359D01*
G37*
G36*
X0829791Y0700843D02*
X0821347Y0702824D01*
X0822519Y0707817D01*
X0830963Y0705836D01*
X0829791Y0700843D01*
G37*
G36*
X0741047Y0710739D02*
X0732437Y0711781D01*
X0733053Y0716873D01*
X0741663Y0715831D01*
X0741047Y0710739D01*
G37*
G36*
X0725413Y0712631D02*
X0716803Y0713673D01*
X0717419Y0718765D01*
X0726029Y0717723D01*
X0725413Y0712631D01*
G37*
G36*
X0726217Y0719276D02*
X0717607Y0720318D01*
X0718223Y0725410D01*
X0726833Y0724368D01*
X0726217Y0719276D01*
G37*
G36*
X0741851Y0717384D02*
X0733241Y0718426D01*
X0733857Y0723518D01*
X0742467Y0722476D01*
X0741851Y0717384D01*
G37*
G36*
X0742655Y0724028D02*
X0734045Y0725070D01*
X0734661Y0730162D01*
X0743271Y0729120D01*
X0742655Y0724028D01*
G37*
G36*
X0727021Y0725920D02*
X0718411Y0726962D01*
X0719027Y0732054D01*
X0727637Y0731012D01*
X0727021Y0725920D01*
G37*
G36*
X0651660Y0725692D02*
X0642997Y0726115D01*
X0643248Y0731238D01*
X0651911Y0730815D01*
X0651660Y0725692D01*
G37*
G36*
X0651333Y0719007D02*
X0642670Y0719430D01*
X0642921Y0724553D01*
X0651584Y0724130D01*
X0651333Y0719007D01*
G37*
G36*
X0635604Y0719777D02*
X0626941Y0720200D01*
X0627192Y0725323D01*
X0635855Y0724900D01*
X0635604Y0719777D01*
G37*
G36*
X0635931Y0726462D02*
X0627268Y0726885D01*
X0627519Y0732008D01*
X0636182Y0731585D01*
X0635931Y0726462D01*
G37*
G36*
X0636258Y0733147D02*
X0627595Y0733570D01*
X0627846Y0738693D01*
X0636509Y0738270D01*
X0636258Y0733147D01*
G37*
G36*
X0651987Y0732377D02*
X0643324Y0732800D01*
X0643575Y0737923D01*
X0652238Y0737500D01*
X0651987Y0732377D01*
G37*
X0553480Y0731022D03*
X0553480Y0724329D03*
X0537732Y0724329D03*
X0537732Y0731022D03*
X0537732Y0737715D03*
X0553480Y0737715D03*
G36*
X0463617Y0733570D02*
X0454954Y0733147D01*
X0454703Y0738270D01*
X0463366Y0738693D01*
X0463617Y0733570D01*
G37*
G36*
X0463944Y0726885D02*
X0455281Y0726462D01*
X0455030Y0731585D01*
X0463693Y0732008D01*
X0463944Y0726885D01*
G37*
G36*
X0464271Y0720200D02*
X0455608Y0719777D01*
X0455357Y0724900D01*
X0464020Y0725323D01*
X0464271Y0720200D01*
G37*
G36*
X0448542Y0719431D02*
X0439879Y0719008D01*
X0439628Y0724131D01*
X0448291Y0724554D01*
X0448542Y0719431D01*
G37*
G36*
X0448215Y0726115D02*
X0439552Y0725692D01*
X0439301Y0730815D01*
X0447964Y0731238D01*
X0448215Y0726115D01*
G37*
G36*
X0447888Y0732800D02*
X0439225Y0732377D01*
X0438974Y0737500D01*
X0447637Y0737923D01*
X0447888Y0732800D01*
G37*
G36*
X0373605Y0720318D02*
X0364995Y0719276D01*
X0364379Y0724368D01*
X0372989Y0725410D01*
X0373605Y0720318D01*
G37*
G36*
X0374409Y0713673D02*
X0365799Y0712631D01*
X0365183Y0717723D01*
X0373793Y0718765D01*
X0374409Y0713673D01*
G37*
G36*
X0372801Y0726962D02*
X0364191Y0725920D01*
X0363575Y0731012D01*
X0372185Y0732054D01*
X0372801Y0726962D01*
G37*
G36*
X0357167Y0725070D02*
X0348557Y0724028D01*
X0347941Y0729120D01*
X0356551Y0730162D01*
X0357167Y0725070D01*
G37*
G36*
X0357971Y0718426D02*
X0349361Y0717384D01*
X0348745Y0722476D01*
X0357355Y0723518D01*
X0357971Y0718426D01*
G37*
G36*
X0358775Y0711781D02*
X0350165Y0710739D01*
X0349549Y0715831D01*
X0358159Y0716873D01*
X0358775Y0711781D01*
G37*
G36*
X0286725Y0699904D02*
X0278281Y0697923D01*
X0277109Y0702916D01*
X0285553Y0704897D01*
X0286725Y0699904D01*
G37*
G36*
X0285197Y0706420D02*
X0276753Y0704439D01*
X0275581Y0709432D01*
X0284025Y0711413D01*
X0285197Y0706420D01*
G37*
G36*
X0283668Y0712936D02*
X0275224Y0710955D01*
X0274052Y0715948D01*
X0282496Y0717929D01*
X0283668Y0712936D01*
G37*
G36*
X0268336Y0709340D02*
X0259892Y0707359D01*
X0258720Y0712352D01*
X0267164Y0714333D01*
X0268336Y0709340D01*
G37*
G36*
X0269865Y0702824D02*
X0261421Y0700843D01*
X0260249Y0705836D01*
X0268693Y0707817D01*
X0269865Y0702824D01*
G37*
G36*
X0271393Y0696308D02*
X0262949Y0694327D01*
X0261777Y0699320D01*
X0270221Y0701301D01*
X0271393Y0696308D01*
G37*
G36*
X0201694Y0674513D02*
X0193777Y0670971D01*
X0191682Y0675653D01*
X0199599Y0679195D01*
X0201694Y0674513D01*
G37*
G36*
X0198961Y0680623D02*
X0191044Y0677081D01*
X0188949Y0681763D01*
X0196866Y0685305D01*
X0198961Y0680623D01*
G37*
G36*
X0196228Y0686732D02*
X0188311Y0683190D01*
X0186216Y0687872D01*
X0194133Y0691414D01*
X0196228Y0686732D01*
G37*
G36*
X0181852Y0680302D02*
X0173935Y0676760D01*
X0171840Y0681442D01*
X0179757Y0684984D01*
X0181852Y0680302D01*
G37*
G36*
X0184585Y0674192D02*
X0176668Y0670650D01*
X0174573Y0675332D01*
X0182490Y0678874D01*
X0184585Y0674192D01*
G37*
G36*
X0187318Y0668083D02*
X0179401Y0664541D01*
X0177306Y0669223D01*
X0185223Y0672765D01*
X0187318Y0668083D01*
G37*
G36*
X0126053Y0630989D02*
X0119648Y0625141D01*
X0116189Y0628929D01*
X0122594Y0634777D01*
X0126053Y0630989D01*
G37*
G36*
X0121540Y0635932D02*
X0115135Y0630084D01*
X0111676Y0633872D01*
X0118081Y0639720D01*
X0121540Y0635932D01*
G37*
G36*
X0117027Y0640874D02*
X0110622Y0635026D01*
X0107163Y0638814D01*
X0113568Y0644662D01*
X0117027Y0640874D01*
G37*
G36*
X0105397Y0630255D02*
X0098992Y0624407D01*
X0095533Y0628195D01*
X0101938Y0634043D01*
X0105397Y0630255D01*
G37*
G36*
X0109910Y0625313D02*
X0103505Y0619465D01*
X0100046Y0623253D01*
X0106451Y0629101D01*
X0109910Y0625313D01*
G37*
G36*
X0114423Y0620371D02*
X0108018Y0614523D01*
X0104559Y0618311D01*
X0110964Y0624159D01*
X0114423Y0620371D01*
G37*
G36*
X0071509Y0564323D02*
X0067843Y0556463D01*
X0063195Y0558631D01*
X0066861Y0566491D01*
X0071509Y0564323D01*
G37*
G36*
X0065443Y0567151D02*
X0061777Y0559291D01*
X0057129Y0561459D01*
X0060795Y0569319D01*
X0065443Y0567151D01*
G37*
G36*
X0059377Y0569980D02*
X0055711Y0562120D01*
X0051063Y0564288D01*
X0054729Y0572148D01*
X0059377Y0569980D01*
G37*
G36*
X0052722Y0555707D02*
X0049056Y0547847D01*
X0044408Y0550015D01*
X0048074Y0557875D01*
X0052722Y0555707D01*
G37*
G36*
X0058788Y0552879D02*
X0055122Y0545019D01*
X0050474Y0547187D01*
X0054140Y0555047D01*
X0058788Y0552879D01*
G37*
G36*
X0064854Y0550050D02*
X0061188Y0542190D01*
X0056540Y0544358D01*
X0060206Y0552218D01*
X0064854Y0550050D01*
G37*
G36*
X0037003Y0481214D02*
X0035676Y0472643D01*
X0030607Y0473428D01*
X0031934Y0481999D01*
X0037003Y0481214D01*
G37*
G36*
X0043617Y0480190D02*
X0042290Y0471619D01*
X0037221Y0472404D01*
X0038548Y0480975D01*
X0043617Y0480190D01*
G37*
G36*
X0030389Y0482238D02*
X0029062Y0473667D01*
X0023993Y0474452D01*
X0025320Y0483023D01*
X0030389Y0482238D01*
G37*
G36*
X0027980Y0466675D02*
X0026653Y0458104D01*
X0021584Y0458889D01*
X0022911Y0467460D01*
X0027980Y0466675D01*
G37*
G36*
X0034594Y0465651D02*
X0033267Y0457080D01*
X0028198Y0457865D01*
X0029525Y0466436D01*
X0034594Y0465651D01*
G37*
G36*
X0041208Y0464627D02*
X0039881Y0456056D01*
X0034812Y0456841D01*
X0036139Y0465412D01*
X0041208Y0464627D01*
G37*
D13*
X0162471Y0082881D03*
X0248196Y0050072D03*
X0336919Y0032119D03*
X0427701Y0022941D03*
X0521983Y0019607D03*
X0616322Y0020633D03*
X0707390Y0026443D03*
X0797019Y0039284D03*
X0885614Y0063589D03*
X0967488Y0106859D03*
X1029335Y0175916D03*
X1061611Y0263415D03*
X1071611Y0355039D03*
X1068839Y0447219D03*
X1049302Y0538588D03*
X1002376Y0618606D03*
X0928741Y0674441D03*
X0843016Y0707250D03*
X0754292Y0725203D03*
X0663510Y0734381D03*
X0569228Y0737715D03*
X0474889Y0736689D03*
X0383822Y0730879D03*
X0294192Y0718039D03*
X0205597Y0693733D03*
X0123724Y0650463D03*
X0061876Y0581406D03*
X0029600Y0493907D03*
X0019607Y0402283D03*
X0022373Y0310103D03*
X0041909Y0218734D03*
X0088836Y0138716D03*
M02*
