%
M48
M72
T01C0.0236
T02C0.0400
%
T01
X16247Y8288
X24820Y5007
X33692Y3212
X42770Y2294
X52198Y1961
X61632Y2063
X70739Y2644
X79702Y3928
X88561Y6359
X96749Y10686
X102934Y17592
X106161Y26341
X107161Y35504
X106884Y44722
X104930Y53859
X100238Y61861
X92874Y67444
X84302Y70725
X75429Y72520
X66351Y73438
X56923Y73772
X47489Y73669
X38382Y73088
X29419Y71804
X20560Y69373
X12372Y65046
X6188Y58141
X2960Y49391
X1961Y40228
X2237Y31010
X4191Y21873
X8884Y13872
T02
X105552Y31954
X106891Y31954
X107161Y33929
X105822Y33929
M30
